<?xml version="1.0" standalone="no"?>
<!DOCTYPE svg PUBLIC "-//W3C//DTD SVG 20010904//EN"
 "http://www.w3.org/TR/2001/REC-SVG-20010904/DTD/svg10.dtd">
<svg version="1.0" xmlns="http://www.w3.org/2000/svg"
 width="1024.000000pt" height="1024.000000pt" viewBox="0 0 1024.000000 1024.000000"
 preserveAspectRatio="xMidYMid meet">

<g transform="translate(0.000000,1024.000000) scale(0.100000,-0.100000)"
fill="#000000" stroke="none">
<path d="M0 5120 l0 -5120 5120 0 5120 0 0 5120 0 5120 -5120 0 -5120 0 0
-5120z m2784 1533 c10 -21 91 -207 181 -413 90 -206 183 -420 208 -475 24 -55
101 -230 172 -390 70 -159 131 -297 135 -305 6 -11 19 7 45 65 52 115 326 728
515 1155 89 201 169 373 177 383 15 15 43 17 322 17 l306 0 107 -233 c91 -197
327 -714 524 -1149 l53 -118 -44 -82 c-24 -46 -94 -193 -155 -328 -61 -135
-123 -265 -137 -289 l-26 -45 -12 40 c-14 46 -23 67 -360 808 -197 433 -261
565 -267 550 -16 -38 -262 -593 -523 -1179 -147 -330 -314 -706 -372 -835 -57
-129 -111 -242 -120 -252 -38 -42 -48 -29 -150 199 -138 308 -540 1195 -633
1398 -51 110 -154 337 -230 505 -75 168 -200 442 -277 610 -147 319 -169 373
-158 390 4 6 128 10 354 10 l347 0 18 -37z m4181 10 c-4 -16 -55 -134 -114
-263 -449 -976 -564 -1227 -582 -1261 l-19 -39 343 0 c321 0 345 -1 360 -18
10 -10 76 -149 148 -308 199 -437 439 -972 465 -1034 l24 -55 0 1491 c0 1145
3 1493 12 1502 9 9 90 12 305 12 279 0 293 -1 303 -19 16 -31 14 -3062 -2
-3084 -12 -15 -71 -17 -614 -23 -400 -4 -608 -2 -620 4 -12 7 -96 187 -224
481 l-205 470 -273 1 -272 0 -56 -117 c-66 -139 -231 -493 -300 -643 -57 -125
-82 -171 -103 -187 -21 -18 -641 -19 -659 -1 -20 20 -15 36 57 188 505 1063
601 1274 1257 2749 40 90 78 168 86 172 7 5 165 9 352 9 l338 0 -7 -27z"/>
</g>
</svg>
